<?xml version="1.0" standalone="no"?>
<!DOCTYPE svg PUBLIC "-//W3C//DTD SVG 20010904//EN"
 "http://www.w3.org/TR/2001/REC-SVG-20010904/DTD/svg10.dtd">
<svg version="1.0" xmlns="http://www.w3.org/2000/svg"
 width="747.000000pt" height="164.000000pt" viewBox="0 0 747.000000 164.000000"
 preserveAspectRatio="xMidYMid meet">

<g transform="translate(0.000000,164.000000) scale(0.100000,-0.100000)"
fill="#000000" stroke="none">
<path d="M1950 1613 c-62 -22 -93 -51 -227 -205 -165 -189 -203 -241 -203
-273 0 -40 30 -55 109 -55 81 0 136 -18 146 -49 4 -13 -29 -147 -86 -353 -105
-378 -113 -435 -71 -520 57 -116 224 -167 397 -123 111 29 165 80 172 163 7
84 -48 139 -127 129 -19 -2 -101 -33 -182 -67 -143 -61 -148 -62 -173 -46 -19
12 -25 25 -25 50 0 30 27 65 226 292 124 142 235 276 245 297 28 53 28 130 2
165 -39 52 -79 67 -168 63 -194 -9 -200 -8 -203 17 -2 13 2 29 8 37 6 7 74 35
151 61 208 70 259 115 259 229 0 83 -28 130 -99 167 -51 27 -112 35 -151 21z"/>
<path d="M2639 1606 c-68 -18 -105 -49 -139 -120 -54 -110 -59 -169 -60 -707
0 -308 4 -507 11 -545 25 -139 94 -203 224 -212 43 -3 87 0 109 8 52 17 102
64 117 108 16 46 15 143 -1 202 -6 25 -81 214 -165 420 -84 207 -159 403 -165
437 -37 185 28 305 166 307 62 0 100 -22 121 -71 13 -32 13 -49 -3 -158 -16
-114 -16 -126 0 -206 27 -132 76 -219 297 -525 319 -442 350 -479 425 -510 40
-17 111 -18 151 -3 65 24 119 107 136 209 4 19 32 262 63 540 38 347 54 525
51 570 -16 182 -112 280 -263 268 -73 -6 -123 -36 -159 -93 -26 -42 -30 -59
-33 -135 -5 -116 4 -149 144 -505 152 -390 158 -440 51 -440 -33 0 -44 6 -68
35 -16 19 -152 226 -301 460 -311 485 -349 541 -419 604 -78 70 -179 92 -290
62z"/>
<path d="M4445 1608 c-53 -19 -83 -47 -111 -104 -24 -49 -27 -70 -34 -212 -5
-86 -11 -347 -15 -579 -9 -469 -6 -505 49 -595 41 -68 96 -98 180 -98 100 1
167 42 201 123 22 54 30 183 15 245 -7 31 -73 161 -164 325 -170 305 -186 339
-186 400 0 51 7 63 44 76 41 16 83 -8 132 -77 23 -31 168 -241 324 -467 155
-226 298 -430 318 -454 104 -127 176 -171 287 -171 155 1 228 82 264 295 23
132 57 849 48 990 -11 158 -51 240 -140 287 -56 29 -195 32 -245 5 -70 -38
-94 -128 -68 -257 8 -41 73 -253 145 -470 147 -447 151 -459 151 -555 0 -128
-56 -196 -161 -198 -89 -1 -133 50 -124 148 19 221 19 251 -8 337 -15 46 -43
109 -62 142 -48 79 -542 729 -600 789 -74 78 -158 104 -240 75z"/>
<path d="M6593 1609 c-281 -43 -461 -213 -535 -504 -20 -79 -23 -115 -23 -290
0 -175 3 -211 23 -290 70 -276 227 -432 489 -487 129 -26 338 -21 453 12 223
64 367 220 431 465 22 81 24 112 24 300 0 189 -2 219 -24 300 -37 143 -83 228
-171 315 -129 129 -256 178 -480 185 -69 2 -153 0 -187 -6z m157 -138 c29 -20
537 -624 581 -690 46 -71 34 -146 -30 -184 -60 -35 -838 -339 -880 -343 -60
-7 -127 26 -153 76 -37 67 -23 132 130 616 77 242 146 454 155 470 20 39 37
53 84 69 43 15 76 11 113 -14z"/>
<path d="M368 1576 c-94 -26 -168 -101 -202 -205 -23 -67 -149 -1136 -140
-1186 17 -105 93 -165 207 -165 91 0 171 39 202 100 19 37 19 121 0 167 -8 20
-67 117 -131 215 -64 98 -120 193 -125 211 -12 43 -3 80 27 108 48 45 86 35
430 -114 348 -152 406 -172 473 -164 90 10 123 105 58 170 -19 18 -210 147
-425 286 -215 139 -403 266 -417 283 -54 64 -17 157 69 174 52 9 88 -3 331
-114 347 -157 414 -184 481 -189 144 -13 224 64 224 213 0 100 -38 159 -130
202 -31 15 -89 17 -460 19 -322 2 -436 -1 -472 -11z"/>
</g>
</svg>
